<svg width="20" height="20" viewBox="0 0 20 20" fill="none" xmlns="http://www.w3.org/2000/svg">
<path d="M10 0C4.47818 0 0 4.59099 0 10.2529C0 14.783 2.86545 18.6258 6.83909 19.9822C7.33909 20.0767 7.5 19.7585 7.5 19.4885V17.5794C4.71818 18.2003 4.13909 16.3703 4.13909 16.3703C3.68455 15.1848 3.02818 14.8703 3.02818 14.8703C2.12091 14.2339 3.09727 14.2466 3.09727 14.2466C4.10182 14.3193 4.63 15.3039 4.63 15.3039C5.52091 16.8712 6.96909 16.4185 7.54 16.1557C7.62909 15.4939 7.88818 15.0412 8.17455 14.7848C5.95455 14.5248 3.62 13.6457 3.62 9.71744C3.62 8.59742 4.01 7.68377 4.64909 6.96558C4.54545 6.70648 4.20364 5.66374 4.74636 4.25189C4.74636 4.25189 5.58636 3.97643 7.49727 5.30282C8.29455 5.07554 9.15 4.96191 10 4.95736C10.85 4.96191 11.7055 5.07554 12.5045 5.30282C14.4136 3.97643 15.2527 4.25189 15.2527 4.25189C15.7964 5.66465 15.4545 6.70739 15.3509 6.96558C15.9927 7.68377 16.38 8.59833 16.38 9.71744C16.38 13.6557 14.0409 14.523 11.8145 14.7766C12.1727 15.0948 12.5 15.7185 12.5 16.6748V19.4885C12.5 19.7613 12.66 20.0813 13.1673 19.9813C17.1382 18.6231 20 14.7812 20 10.2529C20 4.59008 15.5227 0 10 0Z" fill="#737373"/>
</svg>
