<svg width="20" height="20" viewBox="0 0 20 20" fill="none" xmlns="http://www.w3.org/2000/svg">
<path d="M20 1.47156V18.5304C20 18.9204 19.8451 19.2945 19.5693 19.5703C19.2935 19.846 18.9194 20.001 18.5294 20.001H1.47059C1.08056 20.001 0.706514 19.846 0.430725 19.5703C0.154937 19.2945 0 18.9204 0 18.5304L0 1.47156C0 1.08154 0.154937 0.707491 0.430725 0.431702C0.706514 0.155913 1.08056 0.000976563 1.47059 0.000976563L18.5294 0.000976562C18.9194 0.000976563 19.2935 0.155913 19.5693 0.431702C19.8451 0.707491 20 1.08154 20 1.47156V1.47156ZM5.88235 7.64804H2.94118V17.0598H5.88235V7.64804ZM6.14706 4.41274C6.14861 4.19027 6.10632 3.96966 6.02262 3.76353C5.93891 3.5574 5.81542 3.36977 5.65919 3.21136C5.50297 3.05295 5.31708 2.92687 5.11213 2.84031C4.90718 2.75374 4.68718 2.7084 4.46471 2.70686H4.41176C3.95934 2.70686 3.52544 2.88659 3.20552 3.2065C2.88561 3.52642 2.70588 3.96031 2.70588 4.41274C2.70588 4.86517 2.88561 5.29907 3.20552 5.61898C3.52544 5.9389 3.95934 6.11862 4.41176 6.11862V6.11862C4.63426 6.1241 4.85565 6.08568 5.06328 6.00556C5.27092 5.92544 5.46074 5.8052 5.62189 5.65169C5.78304 5.49819 5.91237 5.31444 6.00248 5.11094C6.09259 4.90744 6.14172 4.68818 6.14706 4.46568V4.41274ZM17.0588 11.3422C17.0588 8.51274 15.2588 7.41274 13.4706 7.41274C12.8851 7.38342 12.3021 7.50813 11.7799 7.77443C11.2576 8.04072 10.8143 8.43929 10.4941 8.93039H10.4118V7.64804H7.64706V17.0598H10.5882V12.0539C10.5457 11.5412 10.7072 11.0325 11.0376 10.6382C11.3681 10.2439 11.8407 9.99586 12.3529 9.94804H12.4647C13.4 9.94804 14.0941 10.5363 14.0941 12.0186V17.0598H17.0353L17.0588 11.3422Z" fill="#737373"/>
</svg>
